<svg width="48" height="48" viewBox="0 0 48 48" fill="none" xmlns="http://www.w3.org/2000/svg">
<path fill-rule="evenodd" clip-rule="evenodd" d="M24 48C37.2548 48 48 37.2548 48 24C48 10.7452 37.2548 0 24 0C10.7452 0 0 10.7452 0 24C0 37.2548 10.7452 48 24 48Z" fill="white"/>
<path fill-rule="evenodd" clip-rule="evenodd" d="M8 41H40V9H8V41Z" fill="white"/>
<mask id="mask0" mask-type="alpha" maskUnits="userSpaceOnUse" x="13" y="10" width="22" height="30">
<path fill-rule="evenodd" clip-rule="evenodd" d="M32 10.333H22L13.3334 27.6663H23.3334L18.6667 39.6663L34.6667 21.6663H26L32 10.333Z" fill="white"/>
</mask>
<g mask="url(#mask0)">
<path fill-rule="evenodd" clip-rule="evenodd" d="M32 10.333H22L13.3334 27.6663H23.3334L18.6667 39.6663L34.6667 21.6663H26L32 10.333Z" fill="url(#paint0_linear)"/>
</g>
<mask id="mask1" mask-type="alpha" maskUnits="userSpaceOnUse" x="13" y="10" width="19" height="18">
<path fill-rule="evenodd" clip-rule="evenodd" d="M22 10.333L13.3334 27.6663H23.3334L32 10.333H22Z" fill="white"/>
</mask>
<g mask="url(#mask1)">
<path fill-rule="evenodd" clip-rule="evenodd" d="M22 10.333L13.3334 27.6663H23.3334L32 10.333H22Z" fill="url(#paint1_linear)"/>
</g>
<defs>
<linearGradient id="paint0_linear" x1="24.1872" y1="0.91097" x2="2.02793" y2="13.317" gradientUnits="userSpaceOnUse">
<stop stop-color="#F6933F"/>
<stop offset="1" stop-color="#FBC13F"/>
</linearGradient>
<linearGradient id="paint1_linear" x1="17.6237" y1="39.0187" x2="30.4758" y2="23.4306" gradientUnits="userSpaceOnUse">
<stop stop-color="#F6933F"/>
<stop offset="1" stop-color="#FBC13F"/>
</linearGradient>
</defs>
</svg>
