<svg xmlns="http://www.w3.org/2000/svg" width="20" height="20" viewBox="0 0 24 24" fill="none"><style>.a{fill:#E02454;}</style><path d="M11.7 4.4C11 4.4 10.5 3.9 10.5 3.3V1.1C10.5 0.5 11 0 11.7 0 12.3 0 12.8 0.5 12.8 1.1V3.3C12.8 3.9 12.3 4.4 11.7 4.4Z" class="a"/><path d="M4.2 6.2C3.7 6.6 3 6.6 2.6 6.2L1 4.7C0.6 4.2 0.6 3.5 1 3.1 1.5 2.6 2.2 2.6 2.7 3.1L4.2 4.6C4.6 5 4.6 5.7 4.2 6.2Z" class="a"/><path d="M19.5 6.2C20 6.6 20.7 6.6 21.1 6.2L22.7 4.7C23.1 4.2 23.1 3.5 22.7 3.1 22.2 2.6 21.5 2.6 21.1 3.1L19.5 4.6C19.1 5 19.1 5.7 19.5 6.2Z" class="a"/><path d="M6.8 12.6C6.7 12.7 6.7 12.8 6.7 12.8 6.7 12.9 6.6 13 6.7 13.1L6.8 13.2 6.8 13.3 12.1 23.7C12.4 24.1 13.7 24.1 14 23.5 14 23.5 21.9 13.1 21.9 13.1 22.3 12.5 22.2 11.7 21.6 11.3L17.8 7.6C17.2 7.2 16.5 7 15.7 7H13.3C13 7 12.8 7.2 12.5 7.3L6.8 12.6Z" class="a"/><path d="M4.8 12.5C4.9 11.9 5.2 11.4 5.7 11.1L9.8 7H8.1C7.4 7 6.6 7.2 6 7.6L2.2 11.3C1.6 11.7 1.5 12.5 1.9 13.1L9 21.4 5.2 14.1C4.8 13.6 4.7 13.1 4.8 12.5Z" class="a"/></svg>